<svg width="270" height="270" viewBox="0 0 270 270" fill="none" xmlns="http://www.w3.org/2000/svg">
<rect width="270" height="270" fill="white"/>
<path fill-rule="evenodd" clip-rule="evenodd" d="M181.76 82.4844C181.605 82.8843 182.698 82.9053 202.665 82.9053C217.114 82.9053 224.131 82.9863 225.009 83.1699C228.89 83.978 232.215 86.8475 233.652 90.6221C233.909 91.3037 234.656 94.3113 235.309 97.3105C235.958 100.306 237.717 108.223 239.206 114.907L241.924 127.061L241.986 168.808C242.031 198.227 241.973 210.924 241.789 211.82C241.365 213.869 240.047 216.216 238.484 217.705C235.709 220.353 233.513 221.01 227.457 221.019H223.336L223.181 221.798C223.059 222.402 221.618 223.99 216.713 228.911C213.246 232.399 210.108 235.406 209.742 235.6C208.792 236.105 207.098 236.277 206.159 235.967C205.592 235.783 203.249 233.604 198.393 228.744L191.44 221.79L188.559 225.557C184.07 231.416 183.559 231.849 181.164 231.849C178.54 231.849 177.377 230.596 176.242 226.557C175.892 225.3 175.39 223.536 175.124 222.643L174.651 221.019H118.486C77.8036 221.019 61.9765 220.946 61.0472 220.75C59.1007 220.338 56.8517 219.13 55.4398 217.738C53.9626 216.286 52.555 213.641 52.1917 211.629C52.0326 210.76 51.9712 195.836 52.012 168.796L52.0618 134.754C54.2484 136.083 56.5461 137.247 58.9358 138.233L58.9329 171.872C58.9329 198.802 59.0108 209.866 59.1985 210.556C59.5699 211.886 60.2515 212.767 61.3489 213.326C62.2711 213.799 62.8914 213.803 117.461 213.742L172.639 213.681L169.219 201.41C167.338 194.661 165.395 187.731 164.906 186.009C163.563 181.292 163.775 179.304 165.803 177.594C167.913 175.819 168.738 175.925 178.327 179.238C182.735 180.756 192.676 184.168 200.417 186.809C217.18 192.533 215.75 191.999 216.749 192.941C218.316 194.427 218.822 196.358 218.091 198.101C217.557 199.382 217.21 199.7 214.011 201.847C212.424 202.912 210.721 204.075 210.232 204.426L209.343 205.07L218.476 213.804H225.094C230.138 213.804 231.897 213.726 232.497 213.473C233.497 213.056 234.496 211.873 234.815 210.727C234.978 210.126 235.065 197.28 235.065 171.995V134.157H104.895C108.218 132.033 111.273 129.524 113.998 126.697H146.831C194.894 126.697 234.278 126.636 234.399 126.562C234.472 126.489 234.436 126.085 234.318 125.661C234.105 124.89 232.869 119.143 229.298 102.321C228.237 97.3225 227.212 92.9353 227.029 92.5762C226.608 91.7685 225.797 91.0176 224.793 90.5117C224.1 90.1608 221.728 90.1238 200.969 90.1279L177.919 90.1328L176.716 91.8623C173.203 96.9143 166.395 102.208 160.494 104.477L158.711 105.162L172.525 105.28C187.941 105.415 186.999 105.306 188.672 107.162C189.146 107.68 189.664 108.517 189.827 109.015C190.452 110.9 189.526 113.752 187.918 114.895C186.127 116.172 188.187 116.111 147.056 116.111C135.969 116.111 127.773 116.101 121.828 116.076C123.693 112.689 125.178 109.064 126.222 105.256C132.816 105.228 135.101 105.151 134.728 104.986C134.397 104.843 133.475 104.448 132.683 104.109C130.86 103.335 128.991 102.302 127.174 101.093C127.638 98.5671 127.914 95.9752 127.983 93.332H172.165V82.624C175.249 82.5946 178.411 82.5506 181.76 82.4844ZM171.447 184.895C176.326 202.1 182.181 222.589 182.233 222.647C182.268 222.677 183.782 220.776 185.6 218.415C187.42 216.056 189.212 213.943 189.587 213.723C190.42 213.229 191.799 213.204 192.668 213.665C193.029 213.859 196.566 217.27 200.535 221.243L207.751 228.479L211.664 224.573C213.812 222.425 215.57 220.607 215.575 220.529C215.575 220.452 212.37 217.325 208.452 213.575C204.536 209.83 201.129 206.423 200.874 206.01C200.311 205.088 200.283 203.634 200.814 202.736C201.034 202.365 201.658 201.781 202.197 201.438C202.74 201.1 204.585 199.957 206.294 198.9C209.395 196.987 209.403 196.978 208.701 196.713C207.859 196.39 200.727 193.938 194.039 191.665C189.861 190.245 177.462 185.98 172.716 184.331L171.129 183.776L171.447 184.895Z" fill="#6193C9"/>
<path fill-rule="evenodd" clip-rule="evenodd" d="M106.258 148.179C108.059 148.179 109.693 148.612 111.137 149.493C112.591 150.369 113.726 151.625 114.543 153.232C115.368 154.848 115.764 156.752 115.764 158.915C115.764 161.078 115.369 162.984 114.544 164.605L114.543 164.606C113.726 166.207 112.592 167.462 111.14 168.344L111.139 168.345C109.694 169.22 108.059 169.65 106.258 169.65C104.451 169.65 102.811 169.22 101.36 168.346L101.356 168.343C99.9101 167.46 98.7803 166.202 97.9636 164.596C97.1393 162.974 96.7432 161.072 96.7432 158.915C96.7432 156.752 97.1384 154.848 97.9636 153.232C98.7805 151.626 99.9112 150.37 101.359 149.493C102.81 148.612 104.45 148.179 106.258 148.179ZM103.269 165.367C103.323 165.401 103.379 165.435 103.435 165.467L103.269 165.367ZM108.815 165.606C108.845 165.591 108.875 165.578 108.904 165.562L108.915 165.556C108.882 165.573 108.848 165.589 108.815 165.606ZM106.258 152.414C105.28 152.414 104.433 152.657 103.692 153.132L103.688 153.134C102.956 153.598 102.354 154.294 101.897 155.266C101.454 156.212 101.214 157.418 101.214 158.915C101.214 160.41 101.454 161.619 101.896 162.572L102.074 162.921C102.505 163.707 103.046 164.292 103.688 164.704C104.429 165.174 105.279 165.416 106.258 165.416C107.23 165.416 108.077 165.174 108.819 164.704C109.559 164.233 110.159 163.537 110.61 162.575L110.611 162.573C111.06 161.62 111.302 160.411 111.302 158.915C111.302 157.419 111.06 156.213 110.612 155.267L110.609 155.262C110.158 154.294 109.558 153.599 108.821 153.136L108.816 153.132C108.074 152.657 107.229 152.414 106.258 152.414ZM101.187 162.907C101.57 163.716 102.057 164.379 102.646 164.897C102.499 164.768 102.358 164.629 102.224 164.482C102.179 164.432 102.135 164.382 102.092 164.331C102.005 164.228 101.921 164.122 101.84 164.011C101.637 163.734 101.453 163.433 101.286 163.106C101.253 163.04 101.219 162.974 101.187 162.907ZM98.4112 163.706C98.4828 163.872 98.559 164.035 98.6393 164.195C98.5532 164.024 98.472 163.848 98.3959 163.669L98.4112 163.706ZM100.727 161.583C100.732 161.604 100.737 161.625 100.743 161.646C100.726 161.58 100.71 161.514 100.694 161.448L100.727 161.583ZM114.963 159.677C114.951 159.92 114.934 160.158 114.911 160.392C114.946 160.037 114.968 159.673 114.976 159.299L114.963 159.677ZM97.5305 158.555C97.5281 158.664 97.5269 158.775 97.5267 158.887C97.5269 158.767 97.5286 158.648 97.5313 158.53L97.5305 158.555ZM111.724 156.016C111.746 156.094 111.766 156.172 111.786 156.251C111.806 156.33 111.825 156.41 111.843 156.491C111.915 156.815 111.971 157.155 112.011 157.51C112.021 157.599 112.029 157.689 112.037 157.779C112.053 157.961 112.066 158.146 112.074 158.335C112.038 157.483 111.921 156.711 111.724 156.016ZM101.011 155.348C100.955 155.49 100.904 155.637 100.857 155.788L100.931 155.565C100.957 155.492 100.983 155.419 101.011 155.348ZM101.187 154.932C101.156 155 101.126 155.068 101.096 155.137L101.187 154.932ZM102.646 152.938C102.524 153.045 102.407 153.157 102.294 153.276C102.373 153.193 102.454 153.114 102.537 153.037L102.646 152.938ZM109.56 152.693C109.665 152.77 109.766 152.852 109.865 152.938C109.914 152.981 109.963 153.026 110.01 153.071C109.867 152.936 109.717 152.809 109.56 152.693ZM105.053 151.748C104.411 151.88 103.816 152.121 103.269 152.472C103.073 152.596 102.887 152.733 102.71 152.883C102.838 152.775 102.97 152.674 103.107 152.579L103.269 152.472C103.323 152.437 103.38 152.403 103.435 152.37C103.714 152.206 104.004 152.069 104.306 151.96C104.487 151.894 104.673 151.838 104.862 151.792C104.925 151.777 104.989 151.762 105.053 151.748Z" fill="#6193C9"/>
<path fill-rule="evenodd" clip-rule="evenodd" d="M187.531 148.179C189.332 148.179 190.966 148.612 192.41 149.493C193.864 150.369 194.999 151.625 195.816 153.232C196.641 154.848 197.037 156.752 197.037 158.915C197.037 161.078 196.641 162.984 195.817 164.605L195.816 164.606C194.999 166.207 193.865 167.462 192.413 168.344L192.412 168.345C190.967 169.22 189.332 169.65 187.531 169.65C185.724 169.65 184.084 169.22 182.633 168.346L182.629 168.343C181.183 167.46 180.053 166.202 179.236 164.596C178.412 162.974 178.016 161.072 178.016 158.915C178.016 156.752 178.411 154.848 179.236 153.232C180.053 151.626 181.184 150.37 182.632 149.493C184.083 148.612 185.723 148.179 187.531 148.179ZM184.541 165.367C184.596 165.401 184.652 165.435 184.707 165.467L184.541 165.367ZM190.088 165.606C190.117 165.591 190.148 165.578 190.177 165.562L190.188 165.556C190.155 165.573 190.121 165.589 190.088 165.606ZM187.531 152.414C186.553 152.414 185.706 152.657 184.965 153.132L184.961 153.134C184.229 153.598 183.627 154.294 183.169 155.266C182.727 156.212 182.487 157.418 182.487 158.915C182.487 160.41 182.726 161.619 183.169 162.572L183.347 162.921C183.778 163.707 184.319 164.292 184.961 164.704C185.702 165.174 186.551 165.416 187.531 165.416C188.503 165.416 189.349 165.174 190.092 164.704C190.832 164.233 191.432 163.537 191.882 162.575L191.884 162.573C192.333 161.62 192.575 160.411 192.575 158.915C192.575 157.419 192.333 156.213 191.885 155.267L191.882 155.262C191.431 154.294 190.831 153.599 190.094 153.136L190.089 153.132C189.347 152.657 188.502 152.414 187.531 152.414ZM182.46 162.907C182.843 163.716 183.33 164.379 183.919 164.897C183.772 164.768 183.631 164.629 183.497 164.482C183.452 164.432 183.408 164.382 183.365 164.331C183.278 164.228 183.194 164.122 183.113 164.011C182.91 163.734 182.726 163.433 182.559 163.106C182.526 163.04 182.492 162.974 182.46 162.907ZM179.684 163.706C179.756 163.872 179.832 164.035 179.912 164.195C179.826 164.024 179.745 163.848 179.669 163.669L179.684 163.706ZM182 161.583C182.005 161.604 182.01 161.625 182.016 161.646C181.999 161.58 181.983 161.514 181.967 161.448L182 161.583ZM196.235 159.677C196.23 159.792 196.223 159.906 196.216 160.019C196.232 159.783 196.244 159.543 196.249 159.299L196.235 159.677ZM192.996 156.016C193.018 156.094 193.039 156.172 193.059 156.251C193.079 156.33 193.098 156.41 193.116 156.491C193.188 156.815 193.244 157.155 193.283 157.51C193.293 157.599 193.302 157.689 193.31 157.779C193.326 157.961 193.338 158.146 193.346 158.336C193.31 157.484 193.194 156.711 192.996 156.016ZM182.283 155.348C182.228 155.49 182.177 155.637 182.13 155.788L182.204 155.565C182.229 155.492 182.256 155.419 182.283 155.348ZM182.46 154.932C182.429 155 182.399 155.068 182.369 155.137L182.46 154.932ZM183.773 153.07C183.703 153.136 183.635 153.205 183.567 153.276C183.646 153.193 183.727 153.114 183.81 153.037L183.773 153.07ZM186.135 151.792C185.566 151.93 185.035 152.156 184.541 152.472C184.346 152.596 184.16 152.733 183.983 152.883C184.11 152.775 184.243 152.674 184.38 152.579L184.541 152.472C184.596 152.437 184.652 152.403 184.708 152.37C184.987 152.206 185.277 152.069 185.579 151.96C185.76 151.894 185.946 151.838 186.135 151.792Z" fill="#6193C9"/>
<path fill-rule="evenodd" clip-rule="evenodd" d="M85.3965 148.444C87.4007 148.444 89.1694 148.854 90.6716 149.708C92.1727 150.556 93.3238 151.78 94.1164 153.356C94.9161 154.928 95.2993 156.781 95.2993 158.887C95.2993 160.998 94.9127 162.858 94.108 164.442C93.3079 166.028 92.1406 167.261 90.615 168.121L90.6127 168.122C89.0836 168.977 87.2677 169.385 85.1976 169.385H78.9255C78.4928 169.385 78.142 169.035 78.142 168.602V149.227C78.1421 148.795 78.4929 148.444 78.9255 148.444H85.3965ZM92.2601 165.801C92.1994 165.87 92.1379 165.938 92.0749 166.005C92.2041 165.868 92.3281 165.727 92.4475 165.58L92.2601 165.801ZM82.632 165.264H85.0369C86.4182 165.264 87.5019 165.004 88.3302 164.534C89.1593 164.057 89.78 163.373 90.1995 162.458C90.6262 161.52 90.8567 160.339 90.8568 158.887C90.8568 157.447 90.6262 156.274 90.1995 155.343L90.198 155.34C89.7821 154.421 89.1746 153.745 88.373 153.283C87.5691 152.82 86.5304 152.565 85.2167 152.565H82.632V165.264ZM85.3958 149.227C85.8633 149.227 86.3151 149.251 86.7501 149.298C86.4256 149.262 86.0919 149.241 85.7493 149.232L85.3958 149.227Z" fill="#6193C9"/>
<path d="M121.427 148.45C121.647 148.477 121.847 148.596 121.975 148.781L130.585 161.209V149.227C130.585 148.795 130.936 148.444 131.368 148.444H134.263C134.696 148.444 135.047 148.795 135.047 149.227V168.602C135.047 169.035 134.696 169.385 134.263 169.385H131.577C131.32 169.385 131.079 169.259 130.932 169.048L122.332 156.639V168.602C122.332 169.035 121.981 169.385 121.548 169.385H118.625C118.193 169.385 117.842 169.035 117.842 168.602V149.227C117.842 148.795 118.193 148.444 118.625 148.444H121.331L121.427 148.45Z" fill="#6193C9"/>
<path fill-rule="evenodd" clip-rule="evenodd" d="M147.41 148.444C147.741 148.444 148.036 148.652 148.148 148.962L155.12 168.336C155.206 168.576 155.17 168.844 155.024 169.053C154.877 169.261 154.637 169.385 154.382 169.385H151.28C150.946 169.385 150.648 169.173 150.539 168.858L148.95 164.258H142.496L140.904 168.858C140.795 169.174 140.498 169.385 140.164 169.385H137.061C136.806 169.385 136.567 169.261 136.42 169.053C136.273 168.844 136.237 168.576 136.324 168.336L143.296 148.962L143.346 148.851C143.482 148.603 143.744 148.444 144.033 148.444H147.41ZM143.89 160.231H147.559L145.725 154.924L143.89 160.231Z" fill="#6193C9"/>
<path d="M168.93 148.444C169.362 148.444 169.713 148.795 169.713 149.227V151.744C169.713 152.177 169.362 152.527 168.93 152.527H163.668V168.602C163.668 169.035 163.318 169.385 162.885 169.385H159.971C159.538 169.385 159.188 169.035 159.188 168.602V152.527H153.936C153.503 152.527 153.152 152.177 153.152 151.744V149.227C153.152 148.795 153.503 148.444 153.936 148.444H168.93Z" fill="#6193C9"/>
<path d="M175.167 148.444C175.599 148.444 175.95 148.795 175.95 149.227V168.602C175.95 169.035 175.599 169.385 175.167 169.385H172.244C171.811 169.385 171.46 169.035 171.46 168.602V149.227C171.46 148.795 171.811 148.444 172.244 148.444H175.167Z" fill="#6193C9"/>
<path d="M202.7 148.45C202.92 148.477 203.12 148.596 203.248 148.781L211.858 161.209V149.227C211.858 148.795 212.209 148.444 212.641 148.444H215.536C215.969 148.444 216.319 148.795 216.319 149.227V168.602C216.319 169.035 215.969 169.385 215.536 169.385H212.849C212.592 169.385 212.352 169.259 212.205 169.048L203.605 156.639V168.602C203.605 169.035 203.254 169.385 202.821 169.385H199.898C199.466 169.385 199.115 169.035 199.115 168.602V149.227C199.115 148.795 199.466 148.444 199.898 148.444H202.604L202.7 148.45Z" fill="#6193C9"/>
<path fill-rule="evenodd" clip-rule="evenodd" d="M73.7039 42.0567C73.228 42.124 71.805 42.3215 70.5391 42.4921C62.2658 43.6143 53.2743 47.4749 46.8236 52.6777C37.7962 59.9589 31.5654 69.7494 29.2311 80.3301C23.5705 105.989 37.8949 131.316 62.6519 139.428C68.3036 141.278 71.4728 141.749 78.332 141.749C83.867 141.749 84.7379 141.677 88.2528 140.941C100.283 138.418 110.146 132.331 117.84 122.679C132.209 104.647 132.218 78.7589 117.862 60.9554C115.371 57.867 110.572 53.351 107.367 51.0751C104.395 48.9653 98.3935 45.8768 94.9504 44.6827C89.7431 42.8826 85.5639 42.1779 79.3421 42.0387C76.7205 41.9803 74.1842 41.9893 73.7039 42.0567ZM70.8623 46.0788C57.503 48.2515 46.5498 55.2499 39.0666 66.4006C35.9108 71.1051 33.361 77.3673 32.2971 83.0414C31.5115 87.2252 31.5923 96.5354 32.4498 100.773C34.3307 110.07 38.4965 117.827 45.2255 124.574C55.0699 134.441 67.2217 138.984 81.4429 138.117C89.8194 137.601 97.2219 135.163 103.91 130.71C114.648 123.564 121.97 112.498 124.327 99.8438C125.144 95.4715 125.076 87.0681 124.192 82.817C122.72 75.7333 119.829 69.3723 115.676 64.0708C108.417 54.81 99.0803 48.9159 87.8712 46.5053C84.0645 45.6883 74.7184 45.4548 70.8623 46.0788ZM73.4166 50.7564C62.0324 52.2333 52.583 57.4495 45.2749 66.2884L43.4613 68.479H50.5181C56.9867 68.479 57.6152 68.5239 58.0506 69.0087C58.7195 69.7449 58.6477 70.5799 57.8621 71.3206C57.2785 71.8682 56.8611 71.949 54.6525 71.949C52.7356 71.949 52.1431 72.0388 52.2463 72.3082C52.3227 72.5102 55.7388 82.7855 59.8463 95.1438C63.9492 107.507 67.3878 117.62 67.4821 117.62C67.5764 117.62 68.9275 113.423 70.4852 108.297C72.0384 103.17 73.9777 96.908 74.7902 94.3807L76.2716 89.7884L70.3371 71.949H68.0297C65.1523 71.949 64.039 71.4463 64.0255 70.14C64.0255 69.8661 64.2814 69.3768 64.6001 69.0581C65.1613 68.497 65.5653 68.479 76.9853 68.479C88.0553 68.479 88.8229 68.5149 89.2673 69.0087C89.9137 69.718 89.8733 70.6697 89.1685 71.37C88.6792 71.8638 88.2079 71.949 85.9903 71.949C84.5583 71.949 83.3867 71.9805 83.3867 72.0209C83.3867 72.1466 94.7933 106.03 96.8627 112.049C97.9132 115.111 98.8738 117.553 98.995 117.477C99.1162 117.4 99.2823 117.046 99.3586 116.682C99.4349 116.323 100.934 111.282 102.689 105.478C106.097 94.2281 106.514 92.5043 106.514 89.7256C106.514 85.5418 105.298 82.0179 101.881 76.2854C100.602 74.1397 99.3496 71.6752 99.0983 70.8178C98.3217 68.1693 98.8738 65.7677 100.786 63.4468C101.778 62.2393 104.157 60.9734 105.428 60.9689C105.868 60.9644 106.218 60.8657 106.213 60.7489C106.186 60.2237 100.328 56.2913 97.3161 54.7741C93.6531 52.9336 89.1685 51.5509 84.6346 50.8686C82.6954 50.5813 75.3603 50.505 73.4166 50.7564ZM115.03 75.9218C115.021 79.7734 114.927 80.5455 114.074 83.8943C112.803 88.8637 100.346 125.754 99.2419 127.819C98.9905 128.291 99.022 128.322 99.5113 128.057C101.154 127.177 105.239 123.838 107.659 121.391C113.584 115.412 117.562 108.171 119.272 100.261C119.82 97.725 119.927 96.3379 119.941 91.602C119.954 85.3398 119.64 83.2749 117.93 78.3055C117.162 76.0789 115.272 71.6573 115.084 71.6618C115.061 71.6618 115.034 73.5786 115.03 75.9218ZM38.7883 77.08C36.9837 82.5611 36.7143 84.3971 36.7143 91.171C36.7143 97.9899 37.042 100.248 38.7927 105.334C41.9036 114.379 48.6865 122.81 57.2426 128.268C58.4995 129.067 59.5679 129.687 59.6128 129.637C59.6622 129.593 58.2571 125.535 56.4974 120.624C47.7932 96.3514 40.6557 76.0116 40.4088 74.7726C40.319 74.3327 40.1484 73.9736 40.0317 73.9736C39.9105 73.9736 39.3539 75.3697 38.7883 77.08ZM76.4691 100.782C74.0361 108.431 66.9569 130.015 66.5933 130.885C66.4361 131.267 66.4092 131.675 66.5394 131.788C66.6651 131.904 67.6796 132.21 68.7929 132.47C75.7464 134.095 83.059 133.951 90.6589 132.039L91.7138 131.774L91.1347 130.261C90.3896 128.309 82.9378 107.264 80.9267 101.433C78.7585 95.1393 78.7316 95.072 78.4981 95.072C78.3814 95.072 77.4702 97.6397 76.4691 100.782Z" fill="#6193C9"/>
<path d="M143.459 70.646C146.224 71.3371 155.093 72.7027 153.777 78.0013C152.51 83.0697 143.986 80.3222 141.204 79.631L143.459 70.646Z" fill="#F7931A"/>
<path d="M146.52 58.3858C148.824 58.9618 156.245 60.0319 155.044 64.837C153.892 69.4607 146.784 67.1074 144.48 66.5314L146.52 58.3858Z" fill="#F7931A"/>
<path fill-rule="evenodd" clip-rule="evenodd" d="M110.596 61.2162C115.566 41.2719 135.758 29.1441 155.702 34.1137C175.631 39.0833 187.776 59.2746 182.806 79.2191C177.819 99.1635 157.628 111.291 137.699 106.322C117.771 101.352 105.626 81.1441 110.596 61.2162ZM143.492 52.6759C142.603 52.4784 141.731 52.2649 140.892 52.0674V52.0346L135.264 50.6358L134.178 54.9961C134.215 55.0044 137.204 55.6871 137.14 55.7364C138.802 56.1478 139.098 57.2344 139.049 58.1066L137.14 65.7419C137.255 65.7748 137.404 65.8243 137.568 65.8902C137.436 65.8573 137.288 65.8076 137.14 65.7747L134.458 76.4878C134.26 76.9814 133.75 77.7378 132.598 77.4583C132.63 77.5072 129.647 76.7251 129.62 76.7179L127.595 81.391L132.91 82.7079C133.898 82.9548 134.869 83.2178 135.824 83.4647L134.128 90.245L138.209 91.2647L139.888 84.5507C140.991 84.8468 142.077 85.1268 143.146 85.3901L141.468 92.0714L145.549 93.0918L147.244 86.3278C154.205 87.6443 159.438 87.1014 161.644 80.8153C163.421 75.7471 161.561 72.8177 157.892 70.9089C160.557 70.2999 162.565 68.539 163.108 64.9189C163.848 59.9659 160.08 57.2999 154.929 55.5227L156.591 48.8087L152.51 47.8054L150.881 54.3384C149.811 54.0587 148.708 53.8113 147.606 53.5645L149.252 46.9823L145.171 45.9619L143.492 52.6759Z" fill="#F7931A"/>
</svg>
